<svg
  xmlns="http://www.w3.org/2000/svg"
  xmlns:xlink="http://www.w3.org/1999/xlink"
  width="197"
  zoomAndPan="magnify"
  viewBox="0 0 147.75 149.999998"
  height="200"
  preserveAspectRatio="xMidYMid meet"
  version="1.0"
>
  <path
    fill="#515050"
    d="M 70.054688 13.328125 C 65.570312 14.480469 59.179688 17.667969 54.386719 21.140625 C 47.957031 25.800781 30.816406 42.625 25.304688 49.691406 C 19.496094 57.132812 16.367188 63.398438 14.941406 70.429688 C 14.054688 74.800781 14.378906 82.125 15.652344 86.421875 C 17.511719 92.699219 20.832031 98.609375 26.414062 105.582031 C 29.800781 109.804688 46.742188 126.894531 50.691406 130.074219 C 59.429688 137.097656 67.027344 140.566406 75.601562 141.449219 C 82.09375 142.117188 87.722656 140.925781 94.871094 137.367188 C 99.554688 135.035156 103.617188 132.175781 108.691406 127.640625 C 113.28125 123.539062 124.824219 111.890625 128.636719 107.511719 C 134.640625 100.625 138.675781 93.972656 140.878906 87.324219 C 141.917969 84.195312 142.003906 83.550781 142.140625 77.988281 C 142.265625 72.738281 142.191406 71.65625 141.53125 69.082031 C 138.75 58.222656 132.09375 48.976562 114.988281 32.207031 C 103.46875 20.914062 95.414062 15.582031 86.441406 13.308594 C 81.578125 12.074219 74.890625 12.085938 70.054688 13.328125 M 72.34375 14.585938 C 61.210938 17.144531 52.878906 23.011719 37.207031 39.324219 C 26.953125 49.996094 23.554688 54.300781 20.21875 60.824219 C 17.058594 67.007812 16.023438 71.597656 16.285156 78.25 C 16.734375 89.757812 21.445312 98.121094 36.035156 113.3125 C 46.710938 124.429688 52.671875 129.738281 59.140625 133.878906 C 66.078125 138.320312 73.84375 140.394531 80.839844 139.671875 C 92.847656 138.429688 102.546875 132.148438 119.421875 114.699219 C 130.945312 102.78125 135.855469 95.957031 138.625 88.003906 C 140.1875 83.527344 140.582031 80.675781 140.371094 75.484375 C 140.140625 69.933594 139.175781 66.371094 136.371094 60.773438 C 133.050781 54.132812 130.070312 50.328125 119.960938 39.796875 C 104.261719 23.457031 95.457031 17.152344 84.90625 14.707031 C 82.421875 14.128906 74.644531 14.054688 72.34375 14.585938 M 95.222656 69.960938 C 92.078125 71.613281 91.191406 73.453125 90.960938 78.800781 L 90.78125 82.910156 L 95.375 89.234375 L 99.96875 95.5625 L 99.972656 98.453125 C 99.976562 101.152344 99.917969 101.382812 99.097656 101.921875 C 98.28125 102.457031 98.152344 102.457031 97.335938 101.921875 C 96.5 101.375 96.457031 101.179688 96.457031 98.015625 L 96.457031 94.683594 L 90.734375 94.683594 L 90.988281 98.617188 C 91.277344 103.058594 91.417969 103.570312 92.796875 105.210938 C 96.039062 109.058594 102.257812 108.285156 104.585938 103.75 C 105.140625 102.667969 105.257812 101.675781 105.257812 97.992188 L 105.257812 93.539062 L 100.855469 87.375 L 96.457031 81.207031 L 96.457031 78.632812 C 96.457031 76.523438 96.585938 75.925781 97.160156 75.351562 C 98.007812 74.503906 98.1875 74.492188 99.195312 75.195312 C 99.910156 75.695312 99.976562 76.03125 99.976562 79.0625 L 99.976562 82.382812 L 105.257812 82.382812 L 105.257812 78.5 C 105.257812 74.320312 104.816406 72.851562 103.085938 71.238281 C 101.160156 69.445312 97.375 68.828125 95.222656 69.960938 M 51.394531 88.933594 L 51.394531 107.785156 L 53.03125 107.5625 C 53.929688 107.4375 55.117188 107.339844 55.671875 107.339844 L 56.675781 107.339844 L 56.675781 88.003906 L 60.550781 88.003906 L 60.550781 107.339844 L 65.828125 107.339844 L 65.828125 70.078125 L 60.550781 70.078125 L 60.550781 82.734375 L 56.675781 82.734375 L 56.675781 70.078125 L 51.394531 70.078125 Z M 75.40625 70.667969 C 73.648438 71.53125 71.878906 73.792969 71.632812 75.484375 C 71.515625 76.28125 71.472656 82.8125 71.53125 89.996094 L 71.636719 103.054688 L 72.714844 104.382812 C 74.550781 106.648438 75.449219 107.125 78.171875 107.28125 C 80.375 107.402344 80.78125 107.320312 82.050781 106.480469 C 82.832031 105.96875 83.933594 104.8125 84.503906 103.914062 L 85.542969 102.277344 L 85.542969 88.800781 C 85.542969 76.246094 85.496094 75.234375 84.875 74.019531 C 84.503906 73.300781 83.828125 72.367188 83.371094 71.941406 C 81.429688 70.132812 77.703125 69.535156 75.40625 70.667969 M 77.324219 75.996094 C 76.804688 76.566406 76.742188 77.976562 76.742188 88.796875 C 76.742188 99.386719 76.8125 101.03125 77.296875 101.511719 C 77.964844 102.179688 78.816406 102.203125 79.648438 101.574219 C 80.210938 101.148438 80.261719 100.113281 80.261719 88.8125 C 80.261719 77.34375 80.21875 76.476562 79.617188 75.933594 C 78.78125 75.175781 78.046875 75.195312 77.324219 75.996094 "
    fill-opacity="1"
    fill-rule="evenodd"
  />
  <g clip-path="url(#19e1cdcfb9)">
    <g clip-path="url(#f23c624457)">
      <g clip-path="url(#8ea710dd5c)">
        <g clip-path="url(#3791f796f4)">
          <path
            fill="#515050"
            d="M 96.113281 41.367188 C 95.902344 41.292969 94.273438 41.304688 89.078125 41.410156 C 82.191406 41.554688 81.792969 41.546875 80.667969 41.265625 C 80.472656 41.21875 80.277344 41.195312 80.234375 41.214844 C 80.1875 41.238281 80.027344 41.453125 79.871094 41.699219 C 79.578125 42.152344 78.757812 43.597656 78.734375 43.6875 C 78.699219 43.835938 80.738281 44.28125 81.957031 44.394531 C 82.3125 44.425781 85.578125 44.390625 89.21875 44.3125 C 94.328125 44.203125 95.90625 44.148438 96.144531 44.0625 C 97.359375 43.625 97.339844 41.800781 96.113281 41.367188 M 88.828125 36.1875 C 86.015625 34.355469 82.65625 34.308594 79.828125 36.058594 C 79.09375 36.515625 78.652344 36.882812 77.945312 37.625 C 76.875 38.75 76.328125 39.597656 74.550781 42.878906 C 73.121094 45.515625 72.957031 45.761719 71.957031 46.808594 C 71.261719 47.535156 71.105469 47.675781 70.734375 47.898438 C 68.300781 49.355469 65.183594 48.617188 63.582031 46.207031 L 63.382812 45.910156 L 61.851562 45.945312 C 60.105469 45.988281 60.21875 45.917969 60.566406 46.703125 C 61.578125 48.988281 63.765625 50.773438 66.242188 51.335938 C 68.1875 51.777344 70.339844 51.496094 72.066406 50.574219 C 72.839844 50.164062 73.328125 49.773438 74.179688 48.882812 C 75.398438 47.601562 75.851562 46.898438 77.945312 42.996094 C 78.976562 41.070312 79.59375 40.175781 80.507812 39.289062 C 81.003906 38.800781 81.214844 38.632812 81.597656 38.414062 C 82.957031 37.636719 84.367188 37.46875 85.777344 37.917969 C 86.125 38.03125 86.554688 38.203125 86.734375 38.300781 C 87.46875 38.703125 88.210938 39.394531 88.714844 40.140625 L 88.898438 40.414062 L 90.425781 40.375 C 91.855469 40.34375 91.949219 40.332031 91.925781 40.199219 C 91.882812 39.941406 91.507812 39.167969 91.132812 38.5625 C 90.796875 38.023438 90.679688 37.882812 89.996094 37.207031 C 89.445312 36.664062 89.121094 36.378906 88.828125 36.1875 M 90.527344 45.296875 L 89.019531 45.332031 L 88.769531 45.742188 C 88.484375 46.210938 87.769531 46.992188 87.355469 47.285156 C 85.847656 48.359375 83.910156 48.582031 82.179688 47.875 C 81.308594 47.519531 80.4375 46.957031 78.871094 45.734375 C 78.417969 45.378906 78.035156 45.085938 78.023438 45.085938 C 78.007812 45.082031 77.746094 45.523438 77.441406 46.0625 C 77.136719 46.597656 76.8125 47.140625 76.726562 47.261719 C 76.636719 47.386719 76.558594 47.519531 76.550781 47.558594 C 76.53125 47.644531 77.945312 48.753906 78.929688 49.429688 C 80.707031 50.648438 82.402344 51.199219 84.285156 51.179688 C 86.148438 51.15625 87.8125 50.585938 89.265625 49.472656 C 90.28125 48.695312 91.292969 47.390625 91.777344 46.242188 C 91.976562 45.773438 92.109375 45.335938 92.066406 45.292969 C 92.046875 45.277344 91.355469 45.28125 90.527344 45.296875 M 75.457031 38.472656 C 75.378906 38.414062 74.917969 38.0625 74.433594 37.691406 C 72.519531 36.226562 71.226562 35.578125 69.652344 35.292969 C 66.800781 34.773438 64.03125 35.648438 62.101562 37.675781 C 61.285156 38.535156 60.640625 39.578125 60.3125 40.574219 L 60.152344 41.0625 L 61.703125 41.023438 L 63.253906 40.988281 L 63.4375 40.683594 C 64.828125 38.347656 67.585938 37.429688 70.117188 38.457031 C 70.980469 38.808594 71.832031 39.359375 73.414062 40.597656 C 73.925781 41 74.265625 41.234375 74.292969 41.207031 C 74.316406 41.179688 74.457031 40.941406 74.601562 40.671875 C 74.742188 40.402344 75.035156 39.90625 75.242188 39.5625 C 75.453125 39.222656 75.65625 38.890625 75.695312 38.824219 C 75.765625 38.707031 75.753906 38.6875 75.457031 38.472656 M 72.910156 42.394531 C 72.175781 42.1875 71.1875 42.007812 70.3125 41.929688 C 69.960938 41.894531 66.691406 41.933594 63.054688 42.007812 C 57.945312 42.117188 56.367188 42.175781 56.125 42.261719 C 54.914062 42.699219 54.933594 44.523438 56.15625 44.953125 C 56.371094 45.027344 58 45.019531 63.195312 44.910156 C 70.160156 44.765625 70.632812 44.773438 71.667969 45.074219 L 72.011719 45.175781 L 72.207031 44.914062 C 72.449219 44.597656 73.554688 42.683594 73.535156 42.617188 C 73.53125 42.589844 73.25 42.492188 72.910156 42.394531 "
            fill-opacity="1"
            fill-rule="evenodd"
          />
        </g>
      </g>
    </g>
  </g>
</svg>
