<svg
  xmlns="http://www.w3.org/2000/svg"
  xmlns:xlink="http://www.w3.org/1999/xlink"
  width="298"
  zoomAndPan="magnify"
  viewBox="0 0 223.5 207.749994"
  height="277"
  preserveAspectRatio="xMidYMid meet"
  version="1.0"
>
  <defs>
    <g />
    <clipPath id="76cd6cb8f1">
      <path
        d="M 37 40 L 180 40 L 180 178 L 37 178 Z M 37 40 "
        clip-rule="nonzero"
      />
    </clipPath>
    <clipPath id="69ede6c3fb">
      <path
        d="M 4.113281 0.105469 L 222.582031 4.550781 L 218.457031 207.304688 L -0.0078125 202.863281 Z M 4.113281 0.105469 "
        clip-rule="nonzero"
      />
    </clipPath>
    <clipPath id="e074514756">
      <path
        d="M 4.113281 0.105469 L 222.582031 4.550781 L 218.457031 207.304688 L -0.0078125 202.863281 Z M 4.113281 0.105469 "
        clip-rule="nonzero"
      />
    </clipPath>
    <clipPath id="6c7eb4303f">
      <path
        d="M 4.113281 0.105469 L 222.582031 4.550781 L 218.457031 207.304688 L -0.0078125 202.863281 Z M 4.113281 0.105469 "
        clip-rule="nonzero"
      />
    </clipPath>
  </defs>
  <g clip-path="url(#76cd6cb8f1)">
    <g clip-path="url(#69ede6c3fb)">
      <g clip-path="url(#e074514756)">
        <g clip-path="url(#6c7eb4303f)">
          <path
            fill="#515050"
            d="M 170.457031 41.132812 C 169.507812 41.539062 164.066406 46.613281 146.90625 63.085938 C 124.171875 84.910156 122.804688 86.125 118.160156 88.648438 C 117.355469 89.085938 116.625 89.617188 116.539062 89.824219 C 116.457031 90.035156 116.570312 91.277344 116.796875 92.585938 C 117.21875 95.027344 118.890625 102.46875 119.101562 102.84375 C 119.441406 103.449219 127.664062 98.648438 132.117188 95.242188 C 133.410156 94.257812 144.292969 84.007812 156.304688 72.472656 C 173.171875 56.273438 178.308594 51.1875 178.847656 50.15625 C 181.585938 44.917969 175.898438 38.800781 170.457031 41.132812 M 129.988281 46.164062 C 114.898438 48.664062 103.433594 58.917969 99.316406 73.609375 C 98.242188 77.425781 97.882812 80.054688 97.789062 84.753906 C 97.648438 91.863281 98.414062 96.4375 102.523438 113.070312 C 105.824219 126.429688 106.035156 127.765625 105.886719 134.402344 C 105.785156 139.027344 105.683594 140 105.125 141.882812 C 101.410156 154.367188 88.660156 161.523438 75.839844 158.320312 L 74.265625 157.929688 L 69.222656 162.792969 C 63.472656 168.347656 63.648438 167.769531 67.226562 169.351562 C 77.652344 173.953125 90.523438 173.222656 100.585938 167.453125 C 108.476562 162.925781 114.855469 155.308594 117.851562 146.832031 C 119.1875 143.046875 119.625 140.203125 119.746094 134.546875 C 119.917969 126.4375 119.265625 122.652344 114.308594 102.949219 C 111.863281 93.226562 111.191406 88.28125 111.519531 82.445312 C 111.699219 79.265625 111.890625 78.03125 112.503906 76.101562 C 114.683594 69.261719 118.917969 64.328125 125.058594 61.476562 C 126.566406 60.777344 128.539062 60.023438 129.441406 59.804688 C 133.15625 58.898438 137.785156 58.933594 141.777344 59.898438 L 143.230469 60.25 L 148.253906 55.402344 C 152.960938 50.859375 153.246094 50.527344 152.769531 50.15625 C 151.816406 49.410156 148.175781 47.949219 145.058594 47.070312 C 142.273438 46.28125 141.4375 46.167969 137.0625 45.996094 C 133.539062 45.855469 131.5625 45.90625 129.988281 46.164062 M 163.742188 71.761719 L 158.777344 76.546875 L 159.195312 78.707031 C 159.675781 81.171875 159.667969 86.035156 159.179688 88.320312 C 157.40625 96.632812 151.5625 103.386719 143.574219 106.355469 C 139.546875 107.851562 134.875 108.640625 125.851562 109.347656 C 123.230469 109.550781 121.046875 109.75 120.996094 109.785156 C 120.945312 109.820312 121.417969 112.117188 122.046875 114.886719 C 122.671875 117.660156 123.25 120.492188 123.332031 121.179688 C 123.410156 121.867188 123.554688 122.5625 123.652344 122.726562 C 123.851562 123.066406 132.019531 122.453125 137.425781 121.6875 C 147.144531 120.3125 154.550781 116.933594 160.828125 111.011719 C 167.015625 105.175781 170.871094 98.074219 172.332031 89.816406 C 173.355469 84.027344 172.761719 76.46875 170.859375 71.089844 C 170.074219 68.882812 169.175781 66.984375 168.90625 66.980469 C 168.792969 66.980469 166.46875 69.128906 163.742188 71.761719 M 92.023438 95.320312 C 91.574219 95.371094 88.9375 95.609375 86.167969 95.851562 C 75.214844 96.820312 68.882812 98.625 62.699219 102.539062 C 51.507812 109.617188 44.875 121.164062 44.617188 134.007812 C 44.511719 139.445312 45.554688 144.972656 47.515625 149.371094 L 48.472656 151.523438 L 53.582031 146.589844 L 58.691406 141.660156 L 58.367188 140.066406 C 55.867188 127.839844 62.320312 116.175781 73.996094 111.816406 C 77.984375 110.328125 82.558594 109.5625 91.679688 108.863281 C 94.652344 108.632812 96.511719 108.375 96.515625 108.195312 C 96.519531 108.035156 96.242188 106.792969 95.902344 105.4375 C 95.5625 104.082031 95.003906 101.492188 94.660156 99.6875 C 94.316406 97.878906 93.976562 96.125 93.910156 95.785156 C 93.78125 95.167969 93.679688 95.144531 92.023438 95.320312 M 95.523438 116.503906 C 92.40625 118.074219 88.535156 120.535156 85.34375 122.96875 C 84.054688 123.957031 73.167969 134.203125 61.15625 145.742188 C 44.289062 161.9375 39.15625 167.023438 38.617188 168.054688 C 35.875 173.292969 41.5625 179.414062 47.003906 177.078125 C 47.953125 176.671875 53.410156 171.585938 70.554688 155.128906 C 93.550781 133.054688 95.164062 131.625 99.574219 129.441406 L 101.039062 128.714844 L 100.902344 127.214844 C 100.734375 125.394531 98.574219 115.496094 98.308594 115.320312 C 98.203125 115.253906 96.949219 115.785156 95.523438 116.503906 "
            fill-opacity="1"
            fill-rule="evenodd"
          />
        </g>
      </g>
    </g>
  </g>
  <g fill="#ffffff" fill-opacity="1">
    <g transform="translate(61.357384, 159.759029)">
      <g>
        <path
          d="M 3.132812 -3.132812 L 0.796875 -5.472656 C 0.601562 -5.664062 0.414062 -5.796875 0.226562 -5.863281 C 0.0390625 -5.929688 -0.144531 -5.9375 -0.328125 -5.882812 C -0.511719 -5.828125 -0.691406 -5.710938 -0.871094 -5.53125 C -1.074219 -5.328125 -1.210938 -5.085938 -1.28125 -4.808594 C -1.351562 -4.53125 -1.351562 -4.246094 -1.28125 -3.953125 C -1.210938 -3.660156 -1.070312 -3.382812 -0.855469 -3.121094 L -1.296875 -3.542969 C -1.480469 -3.777344 -1.617188 -4.015625 -1.707031 -4.261719 C -1.800781 -4.507812 -1.847656 -4.75 -1.855469 -4.988281 C -1.859375 -5.226562 -1.816406 -5.453125 -1.730469 -5.667969 C -1.644531 -5.886719 -1.515625 -6.078125 -1.347656 -6.246094 C -1.148438 -6.445312 -0.941406 -6.59375 -0.722656 -6.691406 C -0.503906 -6.792969 -0.28125 -6.839844 -0.0585938 -6.835938 C 0.164062 -6.828125 0.386719 -6.777344 0.605469 -6.675781 C 0.828125 -6.574219 1.039062 -6.421875 1.242188 -6.214844 L 3.730469 -3.730469 Z M 0.574219 -0.574219 L -4.636719 -5.785156 L -4.042969 -6.378906 L 1.167969 -1.167969 Z M 0.574219 -0.574219 "
        />
      </g>
    </g>
  </g>
  <g fill="#ffffff" fill-opacity="1">
    <g transform="translate(65.569028, 155.547384)">
      <g>
        <path
          d="M 2.175781 -2.023438 C 1.855469 -1.707031 1.480469 -1.488281 1.050781 -1.363281 C 0.617188 -1.238281 0.171875 -1.234375 -0.289062 -1.355469 C -0.753906 -1.472656 -1.179688 -1.730469 -1.578125 -2.128906 C -1.976562 -2.527344 -2.234375 -2.957031 -2.351562 -3.417969 C -2.472656 -3.878906 -2.472656 -4.328125 -2.351562 -4.765625 C -2.234375 -5.203125 -2.015625 -5.578125 -1.699219 -5.898438 C -1.378906 -6.214844 -1.003906 -6.429688 -0.570312 -6.546875 C -0.136719 -6.664062 0.3125 -6.664062 0.769531 -6.539062 C 1.230469 -6.417969 1.65625 -6.160156 2.054688 -5.761719 C 2.453125 -5.367188 2.710938 -4.9375 2.832031 -4.476562 C 2.953125 -4.019531 2.953125 -3.574219 2.832031 -3.144531 C 2.710938 -2.714844 2.492188 -2.34375 2.175781 -2.023438 Z M 1.617188 -2.582031 C 1.824219 -2.792969 1.96875 -3.039062 2.046875 -3.328125 C 2.125 -3.617188 2.121094 -3.921875 2.03125 -4.242188 C 1.941406 -4.566406 1.753906 -4.875 1.460938 -5.167969 C 1.167969 -5.460938 0.859375 -5.652344 0.535156 -5.738281 C 0.214844 -5.828125 -0.09375 -5.835938 -0.386719 -5.761719 C -0.679688 -5.6875 -0.929688 -5.546875 -1.140625 -5.339844 C -1.347656 -5.128906 -1.492188 -4.878906 -1.570312 -4.585938 C -1.648438 -4.292969 -1.648438 -3.984375 -1.558594 -3.660156 C -1.472656 -3.335938 -1.28125 -3.023438 -0.984375 -2.726562 C -0.691406 -2.433594 -0.382812 -2.242188 -0.0585938 -2.152344 C 0.261719 -2.0625 0.570312 -2.058594 0.863281 -2.144531 C 1.15625 -2.230469 1.40625 -2.375 1.617188 -2.582031 Z M 1.617188 -2.582031 "
        />
      </g>
    </g>
  </g>
  <g fill="#ffffff" fill-opacity="1">
    <g transform="translate(69.750912, 151.365501)">
      <g>
        <path
          d="M 3.640625 -3.640625 L 3.046875 -3.046875 L -0.675781 -6.769531 L -0.0820312 -7.363281 Z M 1.347656 -4.816406 L 1.5625 -4.617188 C 1.617188 -4.550781 1.695312 -4.445312 1.796875 -4.300781 C 1.898438 -4.152344 2 -3.976562 2.097656 -3.773438 C 2.199219 -3.570312 2.269531 -3.351562 2.3125 -3.117188 C 2.355469 -2.878906 2.34375 -2.640625 2.28125 -2.402344 C 2.21875 -2.160156 2.078125 -1.929688 1.855469 -1.703125 C 1.710938 -1.5625 1.542969 -1.433594 1.347656 -1.324219 C 1.152344 -1.214844 0.945312 -1.144531 0.71875 -1.113281 C 0.492188 -1.082031 0.253906 -1.113281 0 -1.207031 C -0.253906 -1.300781 -0.507812 -1.476562 -0.765625 -1.734375 L -3.238281 -4.207031 L -2.644531 -4.800781 L -0.320312 -2.480469 C -0.0976562 -2.257812 0.113281 -2.117188 0.3125 -2.0625 C 0.511719 -2.007812 0.699219 -2.015625 0.878906 -2.085938 C 1.058594 -2.152344 1.222656 -2.265625 1.378906 -2.417969 C 1.628906 -2.671875 1.777344 -2.949219 1.816406 -3.246094 C 1.855469 -3.542969 1.828125 -3.832031 1.726562 -4.109375 C 1.628906 -4.386719 1.5 -4.625 1.347656 -4.816406 Z M 1.347656 -4.816406 "
        />
      </g>
    </g>
  </g>
  <g fill="#ffffff" fill-opacity="1">
    <g transform="translate(73.873265, 147.243148)">
      <g>
        <path
          d="M -0.894531 -1.503906 L -0.34375 -2.054688 C -0.113281 -1.855469 0.140625 -1.761719 0.421875 -1.777344 C 0.699219 -1.789062 0.980469 -1.933594 1.257812 -2.210938 C 1.425781 -2.378906 1.539062 -2.535156 1.589844 -2.675781 C 1.640625 -2.816406 1.652344 -2.949219 1.621094 -3.070312 C 1.585938 -3.191406 1.523438 -3.300781 1.429688 -3.394531 C 1.316406 -3.507812 1.195312 -3.570312 1.070312 -3.582031 C 0.949219 -3.589844 0.816406 -3.570312 0.671875 -3.519531 C 0.53125 -3.464844 0.378906 -3.398438 0.214844 -3.3125 C 0.015625 -3.222656 -0.1875 -3.132812 -0.402344 -3.046875 C -0.617188 -2.957031 -0.832031 -2.890625 -1.050781 -2.84375 C -1.269531 -2.800781 -1.480469 -2.800781 -1.6875 -2.847656 C -1.890625 -2.894531 -2.085938 -3.007812 -2.261719 -3.1875 C -2.414062 -3.335938 -2.523438 -3.503906 -2.59375 -3.695312 C -2.667969 -3.886719 -2.695312 -4.085938 -2.679688 -4.296875 C -2.664062 -4.503906 -2.609375 -4.710938 -2.511719 -4.917969 C -2.414062 -5.125 -2.277344 -5.316406 -2.09375 -5.5 C -1.84375 -5.75 -1.585938 -5.910156 -1.3125 -5.980469 C -1.042969 -6.054688 -0.773438 -6.046875 -0.5 -5.957031 C -0.226562 -5.867188 0.03125 -5.707031 0.277344 -5.472656 L -0.238281 -4.957031 C -0.496094 -5.148438 -0.730469 -5.238281 -0.9375 -5.234375 C -1.148438 -5.230469 -1.351562 -5.128906 -1.546875 -4.929688 C -1.753906 -4.726562 -1.863281 -4.523438 -1.882812 -4.324219 C -1.902344 -4.128906 -1.839844 -3.953125 -1.691406 -3.804688 C -1.582031 -3.695312 -1.449219 -3.644531 -1.300781 -3.652344 C -1.148438 -3.660156 -0.980469 -3.699219 -0.796875 -3.765625 C -0.613281 -3.835938 -0.417969 -3.914062 -0.214844 -3.996094 C -0.0117188 -4.082031 0.1875 -4.160156 0.378906 -4.234375 C 0.574219 -4.3125 0.761719 -4.359375 0.945312 -4.386719 C 1.128906 -4.410156 1.308594 -4.394531 1.488281 -4.339844 C 1.667969 -4.285156 1.84375 -4.171875 2.019531 -3.996094 C 2.226562 -3.789062 2.363281 -3.554688 2.425781 -3.296875 C 2.492188 -3.039062 2.476562 -2.773438 2.378906 -2.496094 C 2.28125 -2.222656 2.097656 -1.949219 1.832031 -1.683594 C 1.589844 -1.4375 1.351562 -1.261719 1.117188 -1.152344 C 0.882812 -1.042969 0.660156 -0.984375 0.441406 -0.972656 C 0.226562 -0.960938 0.03125 -0.980469 -0.144531 -1.03125 C -0.320312 -1.082031 -0.472656 -1.152344 -0.601562 -1.242188 C -0.730469 -1.332031 -0.828125 -1.417969 -0.894531 -1.503906 Z M -0.894531 -1.503906 "
        />
      </g>
    </g>
  </g>
  <g fill="#ffffff" fill-opacity="1">
    <g transform="translate(77.154778, 143.961635)">
      <g>
        <path
          d="M 1.921875 -4.316406 L 2.480469 -4.875 C 2.683594 -4.59375 2.8125 -4.289062 2.867188 -3.960938 C 2.921875 -3.632812 2.894531 -3.304688 2.785156 -2.96875 C 2.675781 -2.636719 2.476562 -2.328125 2.1875 -2.039062 C 1.839844 -1.691406 1.445312 -1.464844 1 -1.351562 C 0.558594 -1.238281 0.109375 -1.25 -0.34375 -1.378906 C -0.792969 -1.507812 -1.207031 -1.757812 -1.578125 -2.128906 C -1.949219 -2.5 -2.203125 -2.914062 -2.339844 -3.363281 C -2.476562 -3.8125 -2.492188 -4.257812 -2.390625 -4.699219 C -2.285156 -5.140625 -2.0625 -5.53125 -1.71875 -5.875 C -1.359375 -6.238281 -0.96875 -6.460938 -0.558594 -6.550781 C -0.144531 -6.640625 0.277344 -6.589844 0.707031 -6.402344 C 1.140625 -6.214844 1.570312 -5.882812 1.996094 -5.40625 L -0.832031 -2.574219 C -0.566406 -2.359375 -0.285156 -2.210938 0.0078125 -2.136719 C 0.300781 -2.0625 0.585938 -2.0625 0.867188 -2.140625 C 1.148438 -2.21875 1.402344 -2.371094 1.628906 -2.597656 C 1.882812 -2.851562 2.03125 -3.132812 2.078125 -3.441406 C 2.121094 -3.746094 2.070312 -4.039062 1.921875 -4.316406 Z M -1.140625 -5.339844 C -1.445312 -5.03125 -1.617188 -4.683594 -1.644531 -4.296875 C -1.675781 -3.910156 -1.570312 -3.527344 -1.332031 -3.148438 L 0.847656 -5.332031 C 0.5 -5.636719 0.148438 -5.78125 -0.210938 -5.757812 C -0.570312 -5.738281 -0.882812 -5.597656 -1.140625 -5.339844 Z M -1.140625 -5.339844 "
        />
      </g>
    </g>
  </g>
  <g fill="#ffffff" fill-opacity="1">
    <g transform="translate(144.214595, 77.419293)">
      <g>
        <path
          d="M -0.898438 -1.511719 L -0.34375 -2.0625 C -0.113281 -1.863281 0.140625 -1.769531 0.421875 -1.785156 C 0.703125 -1.796875 0.984375 -1.941406 1.261719 -2.21875 C 1.433594 -2.390625 1.542969 -2.546875 1.597656 -2.6875 C 1.648438 -2.828125 1.660156 -2.960938 1.625 -3.085938 C 1.59375 -3.207031 1.53125 -3.316406 1.4375 -3.410156 C 1.320312 -3.523438 1.203125 -3.585938 1.078125 -3.597656 C 0.953125 -3.605469 0.820312 -3.585938 0.675781 -3.53125 C 0.535156 -3.480469 0.382812 -3.410156 0.21875 -3.328125 C 0.015625 -3.238281 -0.1875 -3.148438 -0.402344 -3.058594 C -0.617188 -2.96875 -0.835938 -2.902344 -1.054688 -2.855469 C -1.273438 -2.8125 -1.488281 -2.8125 -1.695312 -2.859375 C -1.898438 -2.90625 -2.09375 -3.019531 -2.273438 -3.199219 C -2.421875 -3.351562 -2.535156 -3.519531 -2.605469 -3.710938 C -2.679688 -3.902344 -2.707031 -4.105469 -2.691406 -4.3125 C -2.675781 -4.523438 -2.621094 -4.730469 -2.523438 -4.9375 C -2.425781 -5.144531 -2.285156 -5.339844 -2.101562 -5.523438 C -1.851562 -5.773438 -1.589844 -5.933594 -1.320312 -6.007812 C -1.046875 -6.078125 -0.773438 -6.070312 -0.5 -5.980469 C -0.226562 -5.890625 0.03125 -5.730469 0.277344 -5.496094 L -0.238281 -4.980469 C -0.5 -5.167969 -0.734375 -5.261719 -0.941406 -5.257812 C -1.152344 -5.25 -1.355469 -5.148438 -1.554688 -4.949219 C -1.757812 -4.746094 -1.871094 -4.542969 -1.890625 -4.34375 C -1.910156 -4.144531 -1.847656 -3.96875 -1.695312 -3.820312 C -1.585938 -3.710938 -1.457031 -3.660156 -1.304688 -3.667969 C -1.152344 -3.675781 -0.984375 -3.714844 -0.800781 -3.785156 C -0.617188 -3.851562 -0.421875 -3.929688 -0.21875 -4.015625 C -0.0117188 -4.101562 0.1875 -4.179688 0.382812 -4.253906 C 0.574219 -4.328125 0.765625 -4.378906 0.949219 -4.402344 C 1.132812 -4.429688 1.316406 -4.414062 1.496094 -4.359375 C 1.675781 -4.304688 1.851562 -4.191406 2.027344 -4.015625 C 2.234375 -3.804688 2.371094 -3.570312 2.4375 -3.3125 C 2.503906 -3.054688 2.484375 -2.785156 2.390625 -2.507812 C 2.292969 -2.230469 2.109375 -1.957031 1.839844 -1.691406 C 1.59375 -1.445312 1.355469 -1.269531 1.121094 -1.160156 C 0.886719 -1.050781 0.660156 -0.988281 0.445312 -0.976562 C 0.226562 -0.964844 0.03125 -0.984375 -0.144531 -1.035156 C -0.324219 -1.085938 -0.476562 -1.160156 -0.605469 -1.25 C -0.734375 -1.339844 -0.832031 -1.425781 -0.898438 -1.511719 Z M -0.898438 -1.511719 "
        />
      </g>
    </g>
  </g>
  <g fill="#ffffff" fill-opacity="1">
    <g transform="translate(147.510738, 74.123149)">
      <g>
        <path
          d="M 3.65625 -3.65625 L 3.058594 -3.058594 L -0.679688 -6.796875 L -0.0820312 -7.394531 Z M 1.351562 -4.835938 L 1.570312 -4.636719 C 1.625 -4.570312 1.703125 -4.464844 1.804688 -4.316406 C 1.90625 -4.171875 2.007812 -3.996094 2.109375 -3.789062 C 2.207031 -3.585938 2.277344 -3.367188 2.320312 -3.128906 C 2.363281 -2.890625 2.355469 -2.652344 2.292969 -2.410156 C 2.230469 -2.167969 2.085938 -1.9375 1.863281 -1.710938 C 1.71875 -1.566406 1.546875 -1.441406 1.351562 -1.332031 C 1.160156 -1.222656 0.949219 -1.148438 0.722656 -1.117188 C 0.496094 -1.085938 0.253906 -1.117188 0 -1.210938 C -0.253906 -1.304688 -0.511719 -1.484375 -0.769531 -1.742188 L -3.253906 -4.222656 L -2.652344 -4.824219 L -0.320312 -2.488281 C -0.0976562 -2.265625 0.113281 -2.125 0.3125 -2.070312 C 0.511719 -2.015625 0.703125 -2.023438 0.882812 -2.09375 C 1.0625 -2.164062 1.230469 -2.277344 1.382812 -2.429688 C 1.636719 -2.683594 1.785156 -2.960938 1.824219 -3.261719 C 1.863281 -3.558594 1.835938 -3.847656 1.734375 -4.128906 C 1.636719 -4.40625 1.507812 -4.644531 1.351562 -4.835938 Z M 1.351562 -4.835938 "
        />
      </g>
    </g>
  </g>
  <g fill="#ffffff" fill-opacity="1">
    <g transform="translate(151.651476, 69.982412)">
      <g>
        <path
          d="M -3.253906 -4.222656 L -2.652344 -4.824219 L 1.085938 -1.085938 L 0.484375 -0.484375 Z M -1.441406 -6.183594 C -1.242188 -6.382812 -1.035156 -6.53125 -0.816406 -6.632812 C -0.59375 -6.730469 -0.375 -6.777344 -0.148438 -6.773438 C 0.0742188 -6.769531 0.296875 -6.714844 0.519531 -6.613281 C 0.742188 -6.511719 0.953125 -6.359375 1.160156 -6.152344 L 3.65625 -3.65625 L 3.058594 -3.058594 L 0.710938 -5.40625 C 0.421875 -5.695312 0.136719 -5.84375 -0.140625 -5.855469 C -0.421875 -5.863281 -0.695312 -5.734375 -0.964844 -5.464844 C -1.167969 -5.261719 -1.304688 -5.019531 -1.375 -4.742188 C -1.445312 -4.460938 -1.445312 -4.175781 -1.375 -3.878906 C -1.304688 -3.585938 -1.164062 -3.308594 -0.949219 -3.042969 L -1.390625 -3.46875 C -1.574219 -3.703125 -1.714844 -3.945312 -1.804688 -4.191406 C -1.898438 -4.4375 -1.945312 -4.679688 -1.953125 -4.917969 C -1.957031 -5.160156 -1.914062 -5.386719 -1.828125 -5.605469 C -1.742188 -5.820312 -1.613281 -6.015625 -1.441406 -6.183594 Z M 1.070312 -8.695312 C 1.269531 -8.894531 1.476562 -9.042969 1.695312 -9.144531 C 1.917969 -9.242188 2.136719 -9.292969 2.363281 -9.285156 C 2.585938 -9.28125 2.808594 -9.226562 3.03125 -9.125 C 3.253906 -9.023438 3.464844 -8.871094 3.671875 -8.664062 L 6.167969 -6.167969 L 5.570312 -5.570312 L 3.222656 -7.917969 C 2.933594 -8.207031 2.648438 -8.355469 2.371094 -8.367188 C 2.089844 -8.375 1.816406 -8.246094 1.546875 -7.976562 C 1.34375 -7.773438 1.207031 -7.53125 1.136719 -7.253906 C 1.066406 -6.972656 1.066406 -6.6875 1.136719 -6.394531 C 1.207031 -6.097656 1.347656 -5.820312 1.5625 -5.554688 L 1.121094 -5.980469 C 0.9375 -6.214844 0.796875 -6.457031 0.707031 -6.703125 C 0.613281 -6.949219 0.566406 -7.191406 0.5625 -7.433594 C 0.554688 -7.671875 0.597656 -7.898438 0.683594 -8.117188 C 0.769531 -8.332031 0.898438 -8.527344 1.070312 -8.695312 Z M 1.070312 -8.695312 "
        />
      </g>
    </g>
  </g>
  <g fill="#ffffff" fill-opacity="1">
    <g transform="translate(158.303559, 63.330328)">
      <g>
        <path
          d="M 1.972656 -1.824219 C 1.679688 -1.53125 1.324219 -1.34375 0.914062 -1.261719 C 0.5 -1.183594 0.0742188 -1.214844 -0.367188 -1.359375 C -0.804688 -1.503906 -1.210938 -1.765625 -1.585938 -2.136719 C -1.957031 -2.511719 -2.21875 -2.921875 -2.363281 -3.363281 C -2.507812 -3.808594 -2.535156 -4.242188 -2.449219 -4.667969 C -2.363281 -5.09375 -2.160156 -5.46875 -1.839844 -5.785156 C -1.492188 -6.136719 -1.136719 -6.3125 -0.777344 -6.316406 C -0.417969 -6.324219 -0.0585938 -6.210938 0.304688 -5.984375 C 0.664062 -5.757812 1.023438 -5.464844 1.382812 -5.105469 C 1.574219 -4.917969 1.757812 -4.691406 1.941406 -4.429688 C 2.121094 -4.167969 2.265625 -3.886719 2.371094 -3.589844 C 2.476562 -3.289062 2.503906 -2.988281 2.457031 -2.6875 C 2.410156 -2.386719 2.246094 -2.097656 1.972656 -1.824219 Z M 1.554688 -2.542969 C 1.808594 -2.796875 1.957031 -3.070312 2 -3.359375 C 2.042969 -3.652344 2 -3.941406 1.871094 -4.226562 C 1.746094 -4.515625 1.558594 -4.78125 1.308594 -5.03125 C 1.035156 -5.304688 0.753906 -5.503906 0.464844 -5.628906 C 0.175781 -5.753906 -0.113281 -5.792969 -0.394531 -5.742188 C -0.679688 -5.691406 -0.945312 -5.542969 -1.195312 -5.292969 C -1.570312 -4.917969 -1.726562 -4.5 -1.671875 -4.035156 C -1.613281 -3.566406 -1.386719 -3.136719 -0.988281 -2.738281 C -0.722656 -2.472656 -0.4375 -2.289062 -0.128906 -2.183594 C 0.183594 -2.078125 0.484375 -2.054688 0.777344 -2.117188 C 1.070312 -2.175781 1.332031 -2.316406 1.554688 -2.542969 Z M -0.566406 -6.910156 L 0.03125 -7.507812 L 3.769531 -3.769531 L 3.222656 -3.222656 C 3.222656 -3.222656 3.175781 -3.261719 3.078125 -3.347656 C 2.980469 -3.429688 2.867188 -3.523438 2.738281 -3.632812 C 2.605469 -3.742188 2.503906 -3.839844 2.421875 -3.917969 Z M -0.566406 -6.910156 "
        />
      </g>
    </g>
  </g>
  <g fill="#ffffff" fill-opacity="1">
    <g transform="translate(162.556406, 59.077481)">
      <g>
        <path
          d="M -3.253906 -4.222656 L -2.652344 -4.824219 L 1.085938 -1.085938 L 0.484375 -0.484375 Z M -1.441406 -6.183594 C -1.242188 -6.382812 -1.035156 -6.53125 -0.816406 -6.632812 C -0.59375 -6.730469 -0.375 -6.777344 -0.148438 -6.773438 C 0.0742188 -6.769531 0.296875 -6.714844 0.519531 -6.613281 C 0.742188 -6.511719 0.953125 -6.359375 1.160156 -6.152344 L 3.65625 -3.65625 L 3.058594 -3.058594 L 0.710938 -5.40625 C 0.421875 -5.695312 0.136719 -5.84375 -0.140625 -5.855469 C -0.421875 -5.863281 -0.695312 -5.734375 -0.964844 -5.464844 C -1.167969 -5.261719 -1.304688 -5.019531 -1.375 -4.742188 C -1.445312 -4.460938 -1.445312 -4.175781 -1.375 -3.878906 C -1.304688 -3.585938 -1.164062 -3.308594 -0.949219 -3.042969 L -1.390625 -3.46875 C -1.574219 -3.703125 -1.714844 -3.945312 -1.804688 -4.191406 C -1.898438 -4.4375 -1.945312 -4.679688 -1.953125 -4.917969 C -1.957031 -5.160156 -1.914062 -5.386719 -1.828125 -5.605469 C -1.742188 -5.820312 -1.613281 -6.015625 -1.441406 -6.183594 Z M -1.441406 -6.183594 "
        />
      </g>
    </g>
  </g>
  <g fill="#ffffff" fill-opacity="1">
    <g transform="translate(107.843218, 115.701738)">
      <g>
        <path
          d="M 2.183594 -2.035156 C 1.863281 -1.714844 1.488281 -1.492188 1.054688 -1.367188 C 0.621094 -1.242188 0.171875 -1.242188 -0.292969 -1.359375 C -0.753906 -1.480469 -1.1875 -1.738281 -1.585938 -2.136719 C -1.984375 -2.539062 -2.242188 -2.96875 -2.363281 -3.433594 C -2.480469 -3.894531 -2.480469 -4.347656 -2.363281 -4.785156 C -2.242188 -5.222656 -2.023438 -5.601562 -1.703125 -5.921875 C -1.386719 -6.242188 -1.007812 -6.457031 -0.570312 -6.574219 C -0.136719 -6.691406 0.3125 -6.691406 0.773438 -6.570312 C 1.234375 -6.445312 1.664062 -6.1875 2.0625 -5.785156 C 2.460938 -5.386719 2.722656 -4.957031 2.84375 -4.496094 C 2.96875 -4.035156 2.96875 -3.589844 2.84375 -3.160156 C 2.722656 -2.726562 2.503906 -2.351562 2.183594 -2.035156 Z M 1.621094 -2.59375 C 1.832031 -2.804688 1.976562 -3.054688 2.054688 -3.34375 C 2.136719 -3.632812 2.132812 -3.9375 2.042969 -4.261719 C 1.953125 -4.585938 1.757812 -4.894531 1.464844 -5.1875 C 1.171875 -5.484375 0.863281 -5.675781 0.539062 -5.765625 C 0.214844 -5.855469 -0.09375 -5.863281 -0.390625 -5.785156 C -0.683594 -5.710938 -0.933594 -5.570312 -1.144531 -5.359375 C -1.351562 -5.152344 -1.496094 -4.898438 -1.578125 -4.605469 C -1.65625 -4.3125 -1.652344 -4 -1.566406 -3.675781 C -1.480469 -3.347656 -1.285156 -3.035156 -0.988281 -2.738281 C -0.691406 -2.441406 -0.382812 -2.25 -0.0585938 -2.160156 C 0.265625 -2.070312 0.574219 -2.070312 0.867188 -2.152344 C 1.160156 -2.238281 1.414062 -2.386719 1.621094 -2.59375 Z M 1.621094 -2.59375 "
        />
      </g>
    </g>
  </g>
  <g fill="#ffffff" fill-opacity="1">
    <g transform="translate(112.043745, 111.501212)">
      <g>
        <path
          d="M -3.515625 -3.960938 L -1.316406 -6.160156 L -0.753906 -5.601562 L -2.953125 -3.402344 Z M -3.074219 -7.394531 L -2.730469 -7.738281 L -2.132812 -7.140625 L -2.476562 -6.796875 C -2.605469 -6.675781 -2.699219 -6.546875 -2.761719 -6.402344 C -2.824219 -6.261719 -2.835938 -6.113281 -2.800781 -5.957031 C -2.761719 -5.796875 -2.652344 -5.628906 -2.476562 -5.449219 L 1.488281 -1.488281 L 0.890625 -0.890625 L -3.074219 -4.851562 C -3.371094 -5.152344 -3.5625 -5.449219 -3.640625 -5.742188 C -3.722656 -6.035156 -3.707031 -6.324219 -3.605469 -6.601562 C -3.5 -6.882812 -3.320312 -7.144531 -3.074219 -7.394531 Z M -3.074219 -7.394531 "
        />
      </g>
    </g>
  </g>
</svg>
